# xmcd
#
# Track frame offsets:
#	150
#	19231
#	32176
#	50901
#	76072
#	105790
#	125549
#	157365
#	181015
#	190722
#	206950
#	221916
#	242703
#	270063
#	292771
#
# Disc length: 4156 seconds
#
# Revision: 1
# Processed by: cddbd v1.5.2PL0 Copyright (c) Steve Scherf et al.
# Submitted via: audiograbber 1.83.01
#
DISCID=cf103a0f
DTITLE=Lazer Lloyd - Insides Out
DYEAR=2014
DGENRE=Blues/Rock
TTITLE0=Good Man Down
TTITLE1=Preaching
TTITLE2=By Your Side
TTITLE3=Feel The Power
TTITLE4=Blues In Tel Aviv (Live)
TTITLE5=Set My Soul Free (Live)
TTITLE6=Deep Peace
TTITLE7=I Believe
TTITLE8=2 AM
TTITLE9=Talk
TTITLE10=Back Porch
TTITLE11=Heavy On Me
TTITLE12=Full Tank
TTITLE13=Lost On The Highway
TTITLE14=Mississippi
EXTD=
EXTT0=
EXTT1=
EXTT2=
EXTT3=
EXTT4=
EXTT5=
EXTT6=
EXTT7=
EXTT8=
EXTT9=
EXTT10=
EXTT11=
EXTT12=
EXTT13=
EXTT14=
PLAYORDER=
